<?xml version="1.0" encoding="utf-8"?>
<!-- Generator: Adobe Illustrator 27.1.1, SVG Export Plug-In . SVG Version: 6.00 Build 0)  -->
<svg version="1.1" id="Layer_1" xmlns="http://www.w3.org/2000/svg" xmlns:xlink="http://www.w3.org/1999/xlink" x="0px" y="0px"
	 viewBox="0 0 62 62" style="enable-background:new 0 0 62 62;" xml:space="preserve">
<style type="text/css">
	.st0{fill:url(#SVGID_1_);}
	.st1{fill:url(#SVGID_00000070822050937707615020000016082372995532071614_);}
	.st2{clip-path:url(#SVGID_00000108987196449085231460000008820481115437829049_);}
	.st3{fill:#D9D9D9;}
	.st4{fill:url(#SVGID_00000100373384034743958010000012232224864630811555_);}
</style>
<g>
	<g>
		<g>
			<linearGradient id="SVGID_1_" gradientUnits="userSpaceOnUse" x1="41.6183" y1="9.149" x2="54.1402" y2="9.149">
				<stop  offset="0" style="stop-color:#FA9C0A"/>
				<stop  offset="0.1233" style="stop-color:#FFC40F"/>
				<stop  offset="0.2992" style="stop-color:#FFD53E"/>
				<stop  offset="0.6184" style="stop-color:#FFF79B"/>
				<stop  offset="0.6494" style="stop-color:#F9EF94"/>
				<stop  offset="0.6982" style="stop-color:#E9D880"/>
				<stop  offset="0.7588" style="stop-color:#CFB35F"/>
				<stop  offset="0.828" style="stop-color:#AB8132"/>
				<stop  offset="0.895" style="stop-color:#844900"/>
				<stop  offset="0.9177" style="stop-color:#874B00"/>
				<stop  offset="0.9366" style="stop-color:#925301"/>
				<stop  offset="0.9542" style="stop-color:#A35F03"/>
				<stop  offset="0.9709" style="stop-color:#BB7005"/>
				<stop  offset="0.9869" style="stop-color:#DA8607"/>
				<stop  offset="1" style="stop-color:#FA9C0A"/>
			</linearGradient>
			<path class="st0" d="M48.3,12.8c0.1-0.5,0.3-1.6,0.4-2.5c0-0.1,0.1-0.2,0.3-0.2l5.2,1.6l0-0.5c0-0.1-0.1-0.2-0.1-0.2l-1.6-1.2
				l0.1-0.6c0-0.1,0-0.1-0.1-0.1l-0.6,0c-0.1,0-0.1,0-0.1,0.1l0,0.2L51,8.8L51,8.3c0-0.1,0-0.1-0.1-0.1l-0.6-0.1
				c-0.1,0-0.1,0-0.1,0.1l0,0.2l-1.2-0.8c-0.1-0.1-0.2-0.3-0.2-0.4c0.1-0.7,0.3-2.4,0.3-2.8c0-0.5-0.6-1.2-0.6-1.2s-0.7,0.6-0.8,1.1
				c-0.1,0.4-0.2,2.1-0.3,2.8c0,0.2-0.1,0.3-0.3,0.4l-1.3,0.6l0-0.1c0-0.1,0-0.1-0.1-0.1l-0.6,0c0,0-0.1,0-0.1,0.1l0,0.6l-0.9,0.4
				l0.1-0.2c0,0,0-0.1-0.1-0.1l-0.6-0.1c-0.1,0-0.1,0-0.1,0.1l0,0.6l-1.8,0.8c-0.1,0-0.1,0.1-0.2,0.2l-0.1,0.5L47,9.9
				c0.1,0,0.2,0.1,0.2,0.2c-0.1,0.9-0.1,2.1-0.1,2.6c0,0.2-0.1,0.3-0.3,0.4l-2,0.9l-0.2,0.6l2.4-0.3c0,0.3,0.4,0.7,0.4,0.7
				s0.4-0.3,0.5-0.6l2.3,0.8l0-0.7l-1.8-1.3C48.3,13.2,48.2,13,48.3,12.8z"/>
		</g>
	</g>
	
		<linearGradient id="SVGID_00000109026458776150760790000010915910186727395996_" gradientUnits="userSpaceOnUse" x1="12.3018" y1="28.4002" x2="45.4464" y2="28.4002">
		<stop  offset="0" style="stop-color:#FA9C0A"/>
		<stop  offset="0.1233" style="stop-color:#FFC40F"/>
		<stop  offset="0.2992" style="stop-color:#FFD53E"/>
		<stop  offset="0.6184" style="stop-color:#FFF79B"/>
		<stop  offset="0.6494" style="stop-color:#F9EF94"/>
		<stop  offset="0.6982" style="stop-color:#E9D880"/>
		<stop  offset="0.7588" style="stop-color:#CFB35F"/>
		<stop  offset="0.828" style="stop-color:#AB8132"/>
		<stop  offset="0.895" style="stop-color:#844900"/>
		<stop  offset="0.9177" style="stop-color:#874B00"/>
		<stop  offset="0.9366" style="stop-color:#925301"/>
		<stop  offset="0.9542" style="stop-color:#A35F03"/>
		<stop  offset="0.9709" style="stop-color:#BB7005"/>
		<stop  offset="0.9869" style="stop-color:#DA8607"/>
		<stop  offset="1" style="stop-color:#FA9C0A"/>
	</linearGradient>
	<path style="fill:url(#SVGID_00000109026458776150760790000010915910186727395996_);" d="M25.7,41.5c-4.1-2.3-6.8-6.7-6.6-11.8
		c0.3-6.5,5.5-11.9,12.1-12.2c5-0.3,9.4,2.3,11.7,6.2c1.2-2.4,2-4.4,2.5-5.9c0.3-0.8,0-1.7-0.7-2.2c-0.8-0.6-1.6-1.1-2.5-1.5
		c-3-1.5-6.5-2.2-10.3-2.1c-3.8-0.1-7.3,0.6-10.3,2.1c-2.6,1.3-4.7,3.1-6.4,5.5c-4.4,6.5-3.7,15.7,1.1,24.2c0.5,0.8,1.4,1.2,2.3,0.9
		C21.1,43.8,23.5,42.8,25.7,41.5z"/>
	<g>
		<defs>
			<rect id="SVGID_00000111899127611780927330000007395144147230398088_" x="19.7" y="19.4" width="31.7" height="38.8"/>
		</defs>
		<clipPath id="SVGID_00000060722559139574338830000000758284243157483655_">
			<use xlink:href="#SVGID_00000111899127611780927330000007395144147230398088_"  style="overflow:visible;"/>
		</clipPath>
		<g style="clip-path:url(#SVGID_00000060722559139574338830000000758284243157483655_);">
			<path class="st3" d="M48.4,19.5C48.4,19.5,48.4,19.5,48.4,19.5c-0.6,4.2-1.7,8-3.4,11.4c-0.2,0.5-0.4,0.9-0.5,1.4
				c-0.8,4.9-4.4,8.9-9.1,10.3c-0.5,0.1-1,0.4-1.4,0.7c-0.8,0.6-1.7,1.1-2.6,1.6c-3.9,2.1-7.9,3.3-11.5,4.1c2.2,2.7,4.7,5.2,7.7,7.4
				c0.6,0.4,1.2,0.9,1.8,1.3c1.5,1,3.4,1,4.9,0c0.6-0.4,1.2-0.8,1.8-1.3C49.8,46.1,55.4,29.6,48.4,19.5z"/>
		</g>
	</g>
	<path class="st3" d="M41.6,36.3c-0.8,1.1-1.7,2.1-2.7,3.1C40,38.5,40.9,37.4,41.6,36.3z"/>
	<g>
		<g>
			
				<linearGradient id="SVGID_00000140701189088259638250000009430374430873792415_" gradientUnits="userSpaceOnUse" x1="7.3475" y1="32.0167" x2="47.465" y2="32.0167">
				<stop  offset="0" style="stop-color:#FA9C0A"/>
				<stop  offset="0.1233" style="stop-color:#FFC40F"/>
				<stop  offset="0.2992" style="stop-color:#FFD53E"/>
				<stop  offset="0.6184" style="stop-color:#FFF79B"/>
				<stop  offset="0.6494" style="stop-color:#F9EF94"/>
				<stop  offset="0.6982" style="stop-color:#E9D880"/>
				<stop  offset="0.7588" style="stop-color:#CFB35F"/>
				<stop  offset="0.828" style="stop-color:#AB8132"/>
				<stop  offset="0.895" style="stop-color:#844900"/>
				<stop  offset="0.9177" style="stop-color:#874B00"/>
				<stop  offset="0.9366" style="stop-color:#925301"/>
				<stop  offset="0.9542" style="stop-color:#A35F03"/>
				<stop  offset="0.9709" style="stop-color:#BB7005"/>
				<stop  offset="0.9869" style="stop-color:#DA8607"/>
				<stop  offset="1" style="stop-color:#FA9C0A"/>
			</linearGradient>
			<path style="fill:url(#SVGID_00000140701189088259638250000009430374430873792415_);" d="M7.3,48.5c0,0,37.9,3.1,40.1-33.1
				C47.5,15.5,41.9,44.4,7.3,48.5z"/>
		</g>
	</g>
	<path class="st3" d="M32.1,32"/>
	<g>
		<path class="st3" d="M26.3,39.9c0.1,0,0.1,0,0.2-0.1c-0.5-0.3-1-0.6-1.5-1c-0.2-0.2-0.4-0.3-0.6-0.5c-0.3-0.2-0.2-0.7,0.1-0.8
			c0.5-0.2,1-0.4,1.5-0.5c0,0,0.1,0,0.1,0c0.2,0,0.3,0.1,0.4,0.2c0.2,0.3,0.3,0.5,0.5,0.8c0.3,0.4,0.6,0.8,0.9,1.1
			c0.2-0.1,0.3-0.2,0.5-0.2c-0.4-0.5-0.8-1-1.2-1.5c-0.2-0.3-0.1-0.7,0.3-0.7c0.5-0.1,1.1-0.2,1.6-0.3c0.6-0.1,1.1-0.1,1.7-0.1
			c0.1,0,0.1,0,0.2,0c0.2,0,0.4,0.2,0.4,0.4c0,0,0,0.1,0,0.1c0,0.1,0,0.2,0,0.3c0.2-0.1,0.3-0.2,0.5-0.3c0,0,0,0,0,0
			c0-0.2,0.1-0.4,0.3-0.5c0,0,0.1,0,0.1,0c0.1,0,0.1,0,0.2,0c0.2-0.2,0.4-0.3,0.6-0.5c-0.2,0-0.4,0-0.7,0c-0.1,0-0.1,0-0.2,0
			c-0.3,0-0.5-0.2-0.5-0.5c0-0.6,0-1.1,0-1.7c0-0.9,0-1.9,0-2.8c0-0.2,0.1-0.4,0.4-0.5c0,0,0.1,0,0.1,0c0.9,0,1.8,0,2.6,0
			c0.9,0,1.8,0,2.7,0c0.1,0,0.2,0,0.3,0.1c0.1,0.1,0.2,0.2,0.2,0.4c0,0.1,0,0.2,0,0.3c0.4-0.4,0.7-0.9,1-1.3c0,0,0,0,0,0
			c-0.1,0-0.1,0-0.2,0c-0.2-0.1-0.3-0.2-0.3-0.4c0-0.4-0.1-0.8-0.1-1.2c-0.1-0.8-0.3-1.7-0.6-2.5c-0.2-0.5-0.3-0.9-0.5-1.3
			c-0.1-0.1-0.1-0.2,0-0.3c0-0.2,0.2-0.3,0.3-0.3c0.3-0.1,0.6-0.2,0.9-0.3c0.3-0.1,0.6-0.2,0.9-0.4c0.2-0.1,0.4,0,0.6,0.1
			c0.6,0.8,1.1,1.6,1.5,2.5c0-0.1,0.1-0.1,0.1-0.2c0.1-0.1,0.1-0.2,0.2-0.4c-2.7-5.4-9.6-8.4-16.4-4.7c-1.6,0.8-2.8,2.1-3.7,3.7
			C18.5,30.6,21,37,25.8,40C26.1,40.2,26.2,39.9,26.3,39.9C26.3,39.9,26.3,39.9,26.3,39.9z M34.8,20c0.1-0.2,0.3-0.3,0.5-0.2
			c0.4,0.1,0.7,0.3,1.1,0.4c1,0.5,1.9,1.1,2.7,1.8c0.1,0.1,0.2,0.2,0.2,0.4c0,0.2-0.1,0.4-0.3,0.4c-0.3,0.1-0.6,0.2-0.9,0.3
			c-0.2,0.1-0.4,0.1-0.6,0.2c-0.2,0.1-0.5,0-0.6-0.2c-0.4-0.6-0.8-1.2-1.3-1.8c-0.2-0.3-0.5-0.5-0.7-0.8
			C34.7,20.5,34.7,20.2,34.8,20z M32,20c0-0.3,0.2-0.4,0.4-0.5c0.1,0,0.2,0,0.3,0.1c0.3,0.2,0.6,0.4,0.9,0.6c1,0.8,1.9,1.7,2.6,2.8
			c0.1,0.2,0.1,0.5-0.1,0.6c-0.1,0.1-0.1,0.1-0.2,0.1c-0.4,0.1-0.7,0.1-1.1,0.2c-0.4,0.1-0.9,0.1-1.3,0.2c-0.3,0-0.5,0-0.8,0.1
			c0,0,0,0,0,0c-0.1,0-0.2,0-0.3,0c-0.3,0-0.5-0.2-0.5-0.5C32,22.5,32,21.2,32,20z M32,25.2c0-0.1,0-0.1,0-0.2
			c0-0.2,0.2-0.3,0.4-0.3c0.1,0,0.2,0,0.3,0c0.5,0,1-0.1,1.5-0.1c0.8-0.1,1.5-0.2,2.3-0.4c0.2-0.1,0.4,0,0.5,0.3
			c0.5,1.1,0.9,2.2,1.1,3.4c0.1,0.5,0.1,0.9,0.2,1.4c0,0.1,0,0.2,0,0.3c0,0.2-0.2,0.3-0.4,0.3c0,0-0.1,0-0.1,0c-0.9,0-1.7,0-2.6,0
			c-0.9,0-1.7,0-2.6,0c0,0-0.1,0-0.1,0c-0.2,0-0.4-0.2-0.4-0.4c0,0,0,0,0-0.1C32,28,32,26.6,32,25.2z M31.5,35.3c0,0.1,0,0.1,0,0.2
			c0,0.2-0.2,0.3-0.4,0.3c-0.4,0-0.7,0-1.1,0.1c-0.4,0-0.9,0.1-1.3,0.1c-0.6,0.1-1.1,0.2-1.7,0.3c-0.2,0.1-0.5-0.1-0.5-0.3
			c-0.5-1-0.8-2.1-1-3.2c-0.1-0.7-0.2-1.3-0.2-2c0-0.2,0-0.3,0.1-0.4c0.1-0.1,0.2-0.1,0.3-0.1c0.7,0,1.4,0,2.1,0c0.2,0,0.4,0,0.5,0
			c0.9,0,1.8,0,2.7,0c0.1,0,0.2,0,0.3,0.1c0.1,0.1,0.2,0.2,0.2,0.4c0,0,0,0.1,0,0.1C31.5,32.4,31.5,33.8,31.5,35.3z M31.5,26.4
			c0,1,0,2,0,3c0,0.1,0,0.1,0,0.2c-0.1,0.2-0.2,0.3-0.4,0.3c0,0-0.1,0-0.1,0c-0.9,0-1.7,0-2.6,0c-0.9,0-1.7,0-2.6,0c0,0-0.1,0-0.1,0
			c-0.3,0-0.4-0.2-0.4-0.5c0-0.2,0-0.3,0-0.5c0.1-0.6,0.1-1.1,0.3-1.7c0.2-1,0.5-1.9,1-2.8c0.1-0.2,0.3-0.3,0.5-0.3
			c0.5,0.1,1,0.2,1.6,0.3c0.4,0.1,0.9,0.1,1.3,0.2c0.4,0,0.8,0.1,1.1,0.1c0.3,0,0.4,0.2,0.4,0.5C31.5,25.6,31.5,26,31.5,26.4z
			 M30.8,19.6c0.1-0.1,0.2-0.1,0.4-0.1c0.2,0,0.3,0.2,0.4,0.4c0,0,0,0.1,0,0.1c0,0.6,0,1.2,0,1.8c0,0.6,0,1.2,0,1.8
			c0,0.2-0.1,0.3-0.2,0.4c-0.1,0.1-0.2,0.1-0.3,0.1c-0.3,0-0.6,0-0.9,0c-0.4,0-0.7-0.1-1.1-0.1c-0.5-0.1-1-0.1-1.5-0.3
			c-0.3-0.1-0.5-0.4-0.3-0.7c0.1-0.2,0.3-0.4,0.4-0.6c0.4-0.5,0.8-1,1.2-1.4C29.5,20.5,30.1,20,30.8,19.6z M24.4,22.1
			c0.7-0.6,1.5-1.2,2.3-1.6c0.5-0.3,1-0.5,1.5-0.6c0.1,0,0.2,0,0.3,0c0.2,0.1,0.3,0.2,0.3,0.5c0,0.1-0.1,0.2-0.2,0.3
			c-0.2,0.2-0.5,0.5-0.7,0.7c-0.5,0.6-0.9,1.2-1.3,1.8c-0.1,0.1-0.1,0.2-0.2,0.2c-0.1,0.1-0.2,0.1-0.4,0c-0.4-0.1-0.8-0.3-1.2-0.4
			c-0.1,0-0.2-0.1-0.3-0.1C24.2,22.7,24.1,22.3,24.4,22.1z M20.9,28.8c0.1-0.7,0.2-1.3,0.4-1.9c0.4-1.1,0.9-2.2,1.6-3.1
			c0.1-0.2,0.2-0.3,0.4-0.5c0.1-0.2,0.3-0.2,0.6-0.1c0.6,0.2,1.2,0.5,1.8,0.7c0.3,0.1,0.4,0.4,0.3,0.7c-0.4,0.9-0.7,1.8-0.9,2.8
			c-0.1,0.5-0.2,1-0.2,1.5c0,0.2,0,0.5-0.1,0.7c0,0.3-0.2,0.4-0.5,0.4c-0.3,0-0.7,0-1,0c-0.2,0-0.3,0-0.5,0c-0.5,0-1,0-1.4,0
			c-0.1,0-0.1,0-0.2,0c-0.2-0.1-0.3-0.2-0.3-0.5C20.8,29.2,20.9,29,20.9,28.8z M23.9,37.4c-0.2,0.1-0.4,0.1-0.6-0.2
			c-0.5-0.6-0.9-1.2-1.2-1.8c-0.5-1-0.9-2.1-1.1-3.2c-0.1-0.4-0.1-0.8-0.1-1.2c0-0.1,0-0.1,0-0.2c0.1-0.2,0.2-0.3,0.4-0.3
			c0.2,0,0.5,0,0.7,0c0.3,0,0.5,0,0.8,0c0.5,0,1,0,1.5,0c0.3,0,0.4,0.2,0.5,0.4c0,0.1,0,0.2,0,0.3c0.1,1.2,0.3,2.3,0.6,3.4
			c0.2,0.5,0.4,1,0.6,1.5c0,0.1,0.1,0.2,0.1,0.3c0,0.2-0.1,0.3-0.3,0.4c-0.5,0.2-1,0.3-1.5,0.5C24.1,37.3,24,37.3,23.9,37.4z"/>
		<path class="st3" d="M26.2,39.9C26.2,40,26.3,40,26.2,39.9C26.3,39.9,26.2,39.9,26.2,39.9z"/>
	</g>
</g>
</svg>
