<?xml version="1.0" encoding="utf-8"?>
<!-- Generator: Adobe Illustrator 27.1.1, SVG Export Plug-In . SVG Version: 6.00 Build 0)  -->
<svg version="1.1" id="Layer_1" xmlns="http://www.w3.org/2000/svg" xmlns:xlink="http://www.w3.org/1999/xlink" x="0px" y="0px"
	 viewBox="0 0 193 52" style="enable-background:new 0 0 193 52;" xml:space="preserve">
<style type="text/css">
	.st0{fill:#D9D9D9;}
	.st1{fill:url(#SVGID_1_);}
	.st2{fill:url(#SVGID_00000134930126590897358820000001977917254016621201_);}
	.st3{fill:url(#SVGID_00000087374233362508383660000001932659287257296284_);}
	.st4{fill:url(#SVGID_00000180347189514216187690000006448132492280883116_);}
	.st5{fill:url(#SVGID_00000170251252783832683920000011778664880820162487_);}
	.st6{fill:url(#SVGID_00000025437500341533845190000000154097142343355581_);}
	.st7{fill:url(#SVGID_00000048493210513882381780000003378879295311538321_);}
	.st8{fill:url(#SVGID_00000099656012396408212030000012962237780603997574_);}
	.st9{fill:url(#SVGID_00000054972107337449251590000016938624945765458601_);}
	.st10{clip-path:url(#SVGID_00000176011461782844708060000011701321292540958395_);}
	.st11{fill:url(#SVGID_00000099624764545444495580000009678615746379850888_);}
</style>
<g>
	<g>
		<g>
			<g>
				<g transform="translate(64.551028, 282.618249)">
					<g>
						<path class="st0" d="M18.1-240h-0.9v-0.4H18v-0.3h-0.9v-0.4h0.9v-0.3h-1.3v1.8h1.4V-240z"/>
					</g>
				</g>
			</g>
			<g>
				<g transform="translate(72.518626, 282.618249)">
					<g>
						<path class="st0" d="M12.5-240.1h-0.9v-1.5h-0.4v1.8h1.4V-240.1z"/>
					</g>
				</g>
			</g>
			<g>
				<g transform="translate(80.387524, 282.618249)">
					<g>
						<path class="st0" d="M7-240H6v-0.4h0.9v-0.3H6v-0.4h0.9v-0.3H5.6v1.8H7V-240z"/>
					</g>
				</g>
			</g>
			<g>
				<g transform="translate(88.355122, 282.618249)">
					<g>
						<path class="st0" d="M1-239.7l0.7-1.8H1.2L0.8-240l-0.5-1.5h-0.4l0.7,1.8H1z"/>
					</g>
				</g>
			</g>
			<g>
				<g transform="translate(97.094363, 282.618249)">
					<g>
						<path class="st0" d="M-5.2-240.2l0.2,0.5h0.5l-0.7-1.8h-0.5l-0.7,1.8h0.4l0.2-0.5H-5.2z M-5.5-241.2l0.2,0.6h-0.4L-5.5-241.2z
							"/>
					</g>
				</g>
			</g>
			<g>
				<g transform="translate(105.636205, 282.618249)">
					<g>
						<path class="st0" d="M-10.7-241.2v-0.3h-1.6v0.3h0.6v1.5h0.4v-1.5H-10.7z"/>
					</g>
				</g>
			</g>
			<g>
				<g transform="translate(113.612768, 282.618249)">
					<g>
						<path class="st0" d="M-17.4-239.7v-1.8h-0.4v1.8H-17.4z"/>
					</g>
				</g>
			</g>
			<g>
				<g transform="translate(118.673259, 282.618249)">
					<g>
						<path class="st0" d="M-19.7-239.7v-1.8h-0.4v0.8c0,0.1,0,0.3,0,0.5l-0.7-1.3h-0.5v1.8h0.4v-0.8c0-0.1,0-0.3,0-0.5l0.7,1.3
							H-19.7z"/>
					</g>
				</g>
			</g>
			<g>
				<g transform="translate(127.977761, 282.618249)">
					<g>
						<path class="st0" d="M-27.1-240.7v0.3h0.4c0,0.2-0.2,0.4-0.4,0.4c-0.3,0-0.5-0.2-0.5-0.7c0-0.4,0.2-0.6,0.5-0.6
							c0.2,0,0.4,0.1,0.4,0.3l0,0h0.4l0,0c0-0.4-0.3-0.6-0.8-0.6c-0.5,0-0.9,0.3-0.9,1c0,0.6,0.3,0.9,0.8,0.9c0.2,0,0.3,0,0.4-0.1
							l0.1-0.2l0,0.3h0.3v-1H-27.1z"/>
					</g>
				</g>
			</g>
			<g>
				<g transform="translate(141.050709, 282.618249)">
					<g>
						<path class="st0" d="M-35.7-241.2v-0.3h-1.6v0.3h0.6v1.5h0.4v-1.5H-35.7z"/>
					</g>
				</g>
			</g>
			<g>
				<g transform="translate(149.027273, 282.618249)">
					<g>
						<path class="st0" d="M-41.4-240.2c0-0.2-0.1-0.4-0.3-0.4c0.2-0.1,0.4-0.2,0.4-0.4c0-0.3-0.2-0.5-0.5-0.5c-0.1,0-0.2,0-0.3,0
							h-0.7v1.8h0.4v-0.7h0.2c0.1,0,0.1,0,0.1,0c0.1,0,0.2,0.1,0.2,0.3c0,0.2,0,0.3,0.1,0.4h0.5C-41.4-239.8-41.4-240-41.4-240.2z
							 M-42.4-240.7v-0.5h0.2c0.1,0,0.1,0,0.1,0c0.1,0,0.2,0.1,0.2,0.2c0,0.2-0.1,0.2-0.2,0.2c0,0-0.1,0-0.1,0H-42.4z"/>
					</g>
				</g>
			</g>
			<g>
				<g transform="translate(157.353765, 282.618249)">
					<g>
						<path class="st0" d="M-47.7-240.2l0.2,0.5h0.5l-0.7-1.8h-0.5l-0.7,1.8h0.4l0.2-0.5H-47.7z M-47.9-241.2l0.2,0.6h-0.4
							L-47.9-241.2z"/>
					</g>
				</g>
			</g>
			<g>
				<g transform="translate(165.895603, 282.618249)">
					<g>
						<path class="st0" d="M-53.7-239.7l0.7-1.8h-0.4l-0.5,1.5l-0.5-1.5h-0.4l0.7,1.8H-53.7z"/>
					</g>
				</g>
			</g>
			<g>
				<g transform="translate(174.634842, 282.618249)">
					<g>
						<path class="st0" d="M-59.5-240h-0.9v-0.4h0.9v-0.3h-0.9v-0.4h0.9v-0.3h-1.3v1.8h1.4V-240z"/>
					</g>
				</g>
			</g>
			<g>
				<g transform="translate(182.602438, 282.618249)">
					<g>
						<path class="st0" d="M-65.1-240.1H-66v-1.5h-0.4v1.8h1.4V-240.1z"/>
					</g>
				</g>
			</g>
			<g>
				<g transform="translate(190.471334, 282.618249)">
					<g>
						<path class="st0" d="M-71.7-240.1L-71.7-240.1l-0.4,0l-0.2,0.7h0.3L-71.7-240.1z"/>
					</g>
				</g>
			</g>
			<g>
				<g transform="translate(199.129796, 282.618249)">
					<g>
						<path class="st0" d="M-76.8-240h-0.9v-0.4h0.9v-0.3h-0.9v-0.4h0.9v-0.3h-1.3v1.8h1.4V-240z"/>
					</g>
				</g>
			</g>
			<g>
				<g transform="translate(207.097392, 282.618249)">
					<g>
						<path class="st0" d="M-82.1-239.7v-1.8h-0.4v0.8c0,0.1,0,0.3,0,0.5l-0.7-1.3h-0.5v1.8h0.4v-0.8c0-0.1,0-0.3,0-0.5l0.7,1.3
							H-82.1z"/>
					</g>
				</g>
			</g>
			<g>
				<g transform="translate(216.401894, 282.618249)">
					<g>
						<path class="st0" d="M-88.9-240.2c0-0.2-0.1-0.4-0.3-0.4c0.2-0.1,0.4-0.2,0.4-0.4c0-0.3-0.2-0.5-0.5-0.5c-0.1,0-0.2,0-0.3,0
							h-0.7v1.8h0.4v-0.7h0.2c0.1,0,0.1,0,0.1,0c0.1,0,0.2,0.1,0.2,0.3c0,0.2,0,0.3,0.1,0.4h0.5C-88.9-239.8-88.9-240-88.9-240.2z
							 M-89.9-240.7v-0.5h0.2c0.1,0,0.1,0,0.1,0c0.1,0,0.2,0.1,0.2,0.2c0,0.2-0.1,0.2-0.2,0.2c0,0-0.1,0-0.1,0H-89.9z"/>
					</g>
				</g>
			</g>
			<g>
				<g transform="translate(224.728386, 282.618249)">
					<g>
						<path class="st0" d="M-95.7-239.7v-1.8h-0.4v1.8H-95.7z"/>
					</g>
				</g>
			</g>
			<g>
				<g transform="translate(229.788878, 282.618249)">
					<g>
						<path class="st0" d="M-98.9-241.6c-0.5,0-0.9,0.3-0.9,1c0,0.6,0.4,0.9,0.9,0.9c0.5,0,0.8-0.2,0.8-0.7l0,0h-0.4l0,0
							c0,0.2-0.2,0.3-0.4,0.3c-0.2,0-0.5-0.2-0.5-0.7c0-0.4,0.2-0.6,0.5-0.6c0.2,0,0.3,0.1,0.4,0.3l0,0h0.4l0,0
							C-98.1-241.3-98.4-241.6-98.9-241.6z"/>
					</g>
				</g>
			</g>
			<g>
				<g transform="translate(238.644751, 282.618249)">
					<g>
						<path class="st0" d="M-104.3-241.5h-0.4v0.8h-0.8v-0.8h-0.4v1.8h0.4v-0.7h0.8v0.7h0.4V-241.5z"/>
					</g>
				</g>
			</g>
			<g>
				<g transform="translate(247.814672, 282.618249)">
					<g>
						<path class="st0" d="M-112-239.7v-1.8h-0.4v1.8H-112z"/>
					</g>
				</g>
			</g>
			<g>
				<g transform="translate(252.875163, 282.618249)">
					<g>
						<path class="st0" d="M-114.3-239.7v-1.8h-0.4v0.8c0,0.1,0,0.3,0,0.5l-0.7-1.3h-0.5v1.8h0.4v-0.8c0-0.1,0-0.3,0-0.5l0.7,1.3
							H-114.3z"/>
					</g>
				</g>
			</g>
			<g>
				<g transform="translate(262.179676, 282.618249)">
					<g>
						<path class="st0" d="M-121.7-240.7v0.3h0.4c0,0.2-0.2,0.4-0.4,0.4c-0.3,0-0.5-0.2-0.5-0.7c0-0.4,0.2-0.6,0.5-0.6
							c0.2,0,0.4,0.1,0.4,0.3l0,0h0.4l0,0c0-0.4-0.3-0.6-0.8-0.6c-0.5,0-0.9,0.3-0.9,1c0,0.6,0.3,0.9,0.8,0.9c0.2,0,0.3,0,0.4-0.1
							l0.1-0.2l0,0.3h0.3v-1H-121.7z"/>
					</g>
				</g>
			</g>
			<g>
				<g transform="translate(275.252624, 282.618249)">
					<g>
						<path class="st0" d="M-130.4-240.1h-0.9v-1.5h-0.4v1.8h1.4V-240.1z"/>
					</g>
				</g>
			</g>
			<g>
				<g transform="translate(283.12152, 282.618249)">
					<g>
						<path class="st0" d="M-136.9-239.7v-1.8h-0.4v1.8H-136.9z"/>
					</g>
				</g>
			</g>
			<g>
				<g transform="translate(288.182023, 282.618249)">
					<g>
						<path class="st0" d="M-139.9-239.7l0.7-1.8h-0.4l-0.5,1.5l-0.5-1.5h-0.4l0.7,1.8H-139.9z"/>
					</g>
				</g>
			</g>
			<g>
				<g transform="translate(296.921273, 282.618249)">
					<g>
						<path class="st0" d="M-145.7-240h-0.9v-0.4h0.9v-0.3h-0.9v-0.4h0.9v-0.3h-1.3v1.8h1.4V-240z"/>
					</g>
				</g>
			</g>
			<g>
				<g transform="translate(304.88888, 282.618249)">
					<g>
						<path class="st0" d="M-152-241.6c-0.4,0-0.7,0.2-0.7,0.5c0,0.3,0.2,0.5,0.6,0.6c0.2,0.1,0.3,0.1,0.3,0.3
							c0,0.1-0.1,0.2-0.3,0.2c-0.2,0-0.3-0.1-0.4-0.3h-0.4c0,0.4,0.3,0.6,0.8,0.6c0.4,0,0.7-0.2,0.7-0.5c0-0.3-0.2-0.5-0.6-0.6
							c-0.3-0.1-0.4-0.1-0.4-0.3c0-0.1,0.1-0.2,0.2-0.2c0.2,0,0.3,0.1,0.3,0.3h0.4C-151.4-241.3-151.6-241.6-152-241.6z"/>
					</g>
				</g>
			</g>
		</g>
		<g>
			<path class="st0" d="M126.8,33.9c-0.6,0-1.1-0.2-1.6-0.6c-0.4-0.4-0.6-0.9-0.6-1.6c0-0.6,0.2-1.1,0.6-1.6
				c0.4-0.4,0.9-0.6,1.6-0.6c0.6,0,1.1,0.2,1.6,0.6c0.4,0.4,0.6,1,0.6,1.6c0,0.6-0.2,1.1-0.6,1.6C127.9,33.6,127.4,33.9,126.8,33.9z
				"/>
			<g>
				<g>
					<g>
						
							<linearGradient id="SVGID_1_" gradientUnits="userSpaceOnUse" x1="96.4723" y1="7.213" x2="134.0923" y2="44.8331" gradientTransform="matrix(1 0 0 1 2 2)">
							<stop  offset="0" style="stop-color:#FA9C0A"/>
							<stop  offset="0.1233" style="stop-color:#FFC40F"/>
							<stop  offset="0.2992" style="stop-color:#FFD53E"/>
							<stop  offset="0.6184" style="stop-color:#FFF79B"/>
							<stop  offset="0.6494" style="stop-color:#F9EF94"/>
							<stop  offset="0.6982" style="stop-color:#E9D880"/>
							<stop  offset="0.7588" style="stop-color:#CFB35F"/>
							<stop  offset="0.828" style="stop-color:#AB8132"/>
							<stop  offset="0.895" style="stop-color:#844900"/>
							<stop  offset="0.9177" style="stop-color:#874B00"/>
							<stop  offset="0.9366" style="stop-color:#925301"/>
							<stop  offset="0.9542" style="stop-color:#A35F03"/>
							<stop  offset="0.9709" style="stop-color:#BB7005"/>
							<stop  offset="0.9869" style="stop-color:#DA8607"/>
							<stop  offset="1" style="stop-color:#FA9C0A"/>
						</linearGradient>
						<path class="st1" d="M89.8,23.1c-0.6,0-1.1-0.2-1.5-0.6c-0.4-0.4-0.6-0.9-0.6-1.5c0-0.6,0.2-1.1,0.6-1.5
							c0.4-0.4,0.9-0.6,1.5-0.6c0.4,0,0.7,0.1,1.1,0.3c0.3,0.2,0.6,0.5,0.8,0.8c0.2,0.3,0.3,0.7,0.3,1.1c0,0.6-0.2,1.1-0.6,1.5
							C90.9,22.9,90.3,23.1,89.8,23.1z"/>
						<g>
							
								<linearGradient id="SVGID_00000107563938628598485380000013622058553937433234_" gradientUnits="userSpaceOnUse" x1="96.4723" y1="7.213" x2="134.0923" y2="44.8331" gradientTransform="matrix(1 0 0 1 2 2)">
								<stop  offset="0" style="stop-color:#FA9C0A"/>
								<stop  offset="0.1233" style="stop-color:#FFC40F"/>
								<stop  offset="0.2992" style="stop-color:#FFD53E"/>
								<stop  offset="0.6184" style="stop-color:#FFF79B"/>
								<stop  offset="0.6494" style="stop-color:#F9EF94"/>
								<stop  offset="0.6982" style="stop-color:#E9D880"/>
								<stop  offset="0.7588" style="stop-color:#CFB35F"/>
								<stop  offset="0.828" style="stop-color:#AB8132"/>
								<stop  offset="0.895" style="stop-color:#844900"/>
								<stop  offset="0.9177" style="stop-color:#874B00"/>
								<stop  offset="0.9366" style="stop-color:#925301"/>
								<stop  offset="0.9542" style="stop-color:#A35F03"/>
								<stop  offset="0.9709" style="stop-color:#BB7005"/>
								<stop  offset="0.9869" style="stop-color:#DA8607"/>
								<stop  offset="1" style="stop-color:#FA9C0A"/>
							</linearGradient>
							<path style="fill:url(#SVGID_00000107563938628598485380000013622058553937433234_);" d="M91.2,25.1
								c-0.4,0.4-0.9,0.6-1.5,0.6c-0.6,0-1.1-0.2-1.5-0.6c-0.2-0.2-0.3-0.4-0.4-0.6h0v9.1h3.9v-9.1h0C91.5,24.7,91.4,24.9,91.2,25.1
								z"/>
						</g>
					</g>
					
						<linearGradient id="SVGID_00000148631902499585564240000015874396123315882415_" gradientUnits="userSpaceOnUse" x1="96.4723" y1="7.213" x2="134.0923" y2="44.8331" gradientTransform="matrix(1 0 0 1 2 2)">
						<stop  offset="0" style="stop-color:#FA9C0A"/>
						<stop  offset="0.1233" style="stop-color:#FFC40F"/>
						<stop  offset="0.2992" style="stop-color:#FFD53E"/>
						<stop  offset="0.6184" style="stop-color:#FFF79B"/>
						<stop  offset="0.6494" style="stop-color:#F9EF94"/>
						<stop  offset="0.6982" style="stop-color:#E9D880"/>
						<stop  offset="0.7588" style="stop-color:#CFB35F"/>
						<stop  offset="0.828" style="stop-color:#AB8132"/>
						<stop  offset="0.895" style="stop-color:#844900"/>
						<stop  offset="0.9177" style="stop-color:#874B00"/>
						<stop  offset="0.9366" style="stop-color:#925301"/>
						<stop  offset="0.9542" style="stop-color:#A35F03"/>
						<stop  offset="0.9709" style="stop-color:#BB7005"/>
						<stop  offset="0.9869" style="stop-color:#DA8607"/>
						<stop  offset="1" style="stop-color:#FA9C0A"/>
					</linearGradient>
					<path style="fill:url(#SVGID_00000148631902499585564240000015874396123315882415_);" d="M94.4,19h8.8v3.4h-4.9v2.3h4.5v3.4
						h-4.5v5.6h-3.9V19z"/>
					
						<linearGradient id="SVGID_00000065769217554253890450000003034171723398332312_" gradientUnits="userSpaceOnUse" x1="96.4723" y1="7.213" x2="134.0923" y2="44.8331" gradientTransform="matrix(1 0 0 1 2 2)">
						<stop  offset="0" style="stop-color:#FA9C0A"/>
						<stop  offset="0.1233" style="stop-color:#FFC40F"/>
						<stop  offset="0.2992" style="stop-color:#FFD53E"/>
						<stop  offset="0.6184" style="stop-color:#FFF79B"/>
						<stop  offset="0.6494" style="stop-color:#F9EF94"/>
						<stop  offset="0.6982" style="stop-color:#E9D880"/>
						<stop  offset="0.7588" style="stop-color:#CFB35F"/>
						<stop  offset="0.828" style="stop-color:#AB8132"/>
						<stop  offset="0.895" style="stop-color:#844900"/>
						<stop  offset="0.9177" style="stop-color:#874B00"/>
						<stop  offset="0.9366" style="stop-color:#925301"/>
						<stop  offset="0.9542" style="stop-color:#A35F03"/>
						<stop  offset="0.9709" style="stop-color:#BB7005"/>
						<stop  offset="0.9869" style="stop-color:#DA8607"/>
						<stop  offset="1" style="stop-color:#FA9C0A"/>
					</linearGradient>
					<path style="fill:url(#SVGID_00000065769217554253890450000003034171723398332312_);" d="M109.6,33.6h-3.9V18.4h3.9V33.6z"/>
					
						<linearGradient id="SVGID_00000021098418365311597080000014989625808936237201_" gradientUnits="userSpaceOnUse" x1="96.4723" y1="7.213" x2="134.0923" y2="44.8331" gradientTransform="matrix(1 0 0 1 2 2)">
						<stop  offset="0" style="stop-color:#FA9C0A"/>
						<stop  offset="0.1233" style="stop-color:#FFC40F"/>
						<stop  offset="0.2992" style="stop-color:#FFD53E"/>
						<stop  offset="0.6184" style="stop-color:#FFF79B"/>
						<stop  offset="0.6494" style="stop-color:#F9EF94"/>
						<stop  offset="0.6982" style="stop-color:#E9D880"/>
						<stop  offset="0.7588" style="stop-color:#CFB35F"/>
						<stop  offset="0.828" style="stop-color:#AB8132"/>
						<stop  offset="0.895" style="stop-color:#844900"/>
						<stop  offset="0.9177" style="stop-color:#874B00"/>
						<stop  offset="0.9366" style="stop-color:#925301"/>
						<stop  offset="0.9542" style="stop-color:#A35F03"/>
						<stop  offset="0.9709" style="stop-color:#BB7005"/>
						<stop  offset="0.9869" style="stop-color:#DA8607"/>
						<stop  offset="1" style="stop-color:#FA9C0A"/>
					</linearGradient>
					<path style="fill:url(#SVGID_00000021098418365311597080000014989625808936237201_);" d="M116.9,30.2l2.2-5.7h3.8l-6.3,13.7
						h-3.9l2.1-4.6l-3.8-9.1h3.9L116.9,30.2z"/>
					
						<linearGradient id="SVGID_00000003793909300110379100000004730151097700347020_" gradientUnits="userSpaceOnUse" x1="96.4723" y1="7.213" x2="134.0923" y2="44.8331" gradientTransform="matrix(1 0 0 1 2 2)">
						<stop  offset="0" style="stop-color:#FA9C0A"/>
						<stop  offset="0.1233" style="stop-color:#FFC40F"/>
						<stop  offset="0.2992" style="stop-color:#FFD53E"/>
						<stop  offset="0.6184" style="stop-color:#FFF79B"/>
						<stop  offset="0.6494" style="stop-color:#F9EF94"/>
						<stop  offset="0.6982" style="stop-color:#E9D880"/>
						<stop  offset="0.7588" style="stop-color:#CFB35F"/>
						<stop  offset="0.828" style="stop-color:#AB8132"/>
						<stop  offset="0.895" style="stop-color:#844900"/>
						<stop  offset="0.9177" style="stop-color:#874B00"/>
						<stop  offset="0.9366" style="stop-color:#925301"/>
						<stop  offset="0.9542" style="stop-color:#A35F03"/>
						<stop  offset="0.9709" style="stop-color:#BB7005"/>
						<stop  offset="0.9869" style="stop-color:#DA8607"/>
						<stop  offset="1" style="stop-color:#FA9C0A"/>
					</linearGradient>
					<path style="fill:url(#SVGID_00000003793909300110379100000004730151097700347020_);" d="M135.5,33.6h-3.9V18.4h3.9V33.6z"/>
					
						<linearGradient id="SVGID_00000156575403750328288810000018093990699899934901_" gradientUnits="userSpaceOnUse" x1="96.4723" y1="7.213" x2="134.0923" y2="44.8331" gradientTransform="matrix(1 0 0 1 2 2)">
						<stop  offset="0" style="stop-color:#FA9C0A"/>
						<stop  offset="0.1233" style="stop-color:#FFC40F"/>
						<stop  offset="0.2992" style="stop-color:#FFD53E"/>
						<stop  offset="0.6184" style="stop-color:#FFF79B"/>
						<stop  offset="0.6494" style="stop-color:#F9EF94"/>
						<stop  offset="0.6982" style="stop-color:#E9D880"/>
						<stop  offset="0.7588" style="stop-color:#CFB35F"/>
						<stop  offset="0.828" style="stop-color:#AB8132"/>
						<stop  offset="0.895" style="stop-color:#844900"/>
						<stop  offset="0.9177" style="stop-color:#874B00"/>
						<stop  offset="0.9366" style="stop-color:#925301"/>
						<stop  offset="0.9542" style="stop-color:#A35F03"/>
						<stop  offset="0.9709" style="stop-color:#BB7005"/>
						<stop  offset="0.9869" style="stop-color:#DA8607"/>
						<stop  offset="1" style="stop-color:#FA9C0A"/>
					</linearGradient>
					<path style="fill:url(#SVGID_00000156575403750328288810000018093990699899934901_);" d="M144.5,24.5h4.4l-4.1,4.3l4.6,4.7
						h-4.5l-3.2-3.5v3.5h-3.9V18.4h3.9v9.1L144.5,24.5z"/>
				</g>
			</g>
		</g>
	</g>
	<g>
		<g>
			<g>
				
					<linearGradient id="SVGID_00000076568852944785572860000002789499778818222985_" gradientUnits="userSpaceOnUse" x1="70.661" y1="7.3792" x2="81.529" y2="7.3792">
					<stop  offset="0" style="stop-color:#FA9C0A"/>
					<stop  offset="0.1233" style="stop-color:#FFC40F"/>
					<stop  offset="0.2992" style="stop-color:#FFD53E"/>
					<stop  offset="0.6184" style="stop-color:#FFF79B"/>
					<stop  offset="0.6494" style="stop-color:#F9EF94"/>
					<stop  offset="0.6982" style="stop-color:#E9D880"/>
					<stop  offset="0.7588" style="stop-color:#CFB35F"/>
					<stop  offset="0.828" style="stop-color:#AB8132"/>
					<stop  offset="0.895" style="stop-color:#844900"/>
					<stop  offset="0.9177" style="stop-color:#874B00"/>
					<stop  offset="0.9366" style="stop-color:#925301"/>
					<stop  offset="0.9542" style="stop-color:#A35F03"/>
					<stop  offset="0.9709" style="stop-color:#BB7005"/>
					<stop  offset="0.9869" style="stop-color:#DA8607"/>
					<stop  offset="1" style="stop-color:#FA9C0A"/>
				</linearGradient>
				<path style="fill:url(#SVGID_00000076568852944785572860000002789499778818222985_);" d="M76.4,10.6c0.1-0.4,0.3-1.4,0.4-2.2
					c0-0.1,0.1-0.2,0.2-0.1l4.5,1.4l0-0.4c0-0.1,0-0.1-0.1-0.2L80,8l0.1-0.5c0,0,0-0.1-0.1-0.1l-0.5,0c0,0-0.1,0-0.1,0.1l0,0.2
					l-0.7-0.5l0.1-0.5c0,0,0-0.1-0.1-0.1l-0.5-0.1c0,0-0.1,0-0.1,0.1l0,0.1l-1-0.7C77.1,5.9,77,5.7,77,5.6c0.1-0.6,0.2-2.1,0.3-2.4
					c0-0.4-0.5-1-0.5-1s-0.6,0.5-0.7,0.9c0,0.4-0.2,1.8-0.2,2.4c0,0.1-0.1,0.3-0.2,0.3l-1.1,0.5l0-0.1c0,0,0-0.1-0.1-0.1L74,6
					c0,0-0.1,0-0.1,0.1l0,0.5L73.1,7l0-0.2c0,0,0-0.1-0.1-0.1l-0.5,0c0,0-0.1,0-0.1,0.1l0,0.5L70.9,8c-0.1,0-0.1,0.1-0.1,0.2
					l-0.1,0.4l4.7-0.5c0.1,0,0.2,0.1,0.2,0.2c-0.1,0.8-0.1,1.8-0.1,2.2c0,0.2-0.1,0.3-0.2,0.4l-1.7,0.8l-0.1,0.5l2-0.3
					c0,0.3,0.3,0.6,0.3,0.6s0.4-0.3,0.4-0.5l2,0.7l0-0.6l-1.6-1.1C76.4,10.9,76.4,10.7,76.4,10.6z"/>
			</g>
		</g>
		
			<linearGradient id="SVGID_00000129925395193183586400000014429738134468559507_" gradientUnits="userSpaceOnUse" x1="45.2166" y1="24.0877" x2="73.9835" y2="24.0877">
			<stop  offset="0" style="stop-color:#FA9C0A"/>
			<stop  offset="0.1233" style="stop-color:#FFC40F"/>
			<stop  offset="0.2992" style="stop-color:#FFD53E"/>
			<stop  offset="0.6184" style="stop-color:#FFF79B"/>
			<stop  offset="0.6494" style="stop-color:#F9EF94"/>
			<stop  offset="0.6982" style="stop-color:#E9D880"/>
			<stop  offset="0.7588" style="stop-color:#CFB35F"/>
			<stop  offset="0.828" style="stop-color:#AB8132"/>
			<stop  offset="0.895" style="stop-color:#844900"/>
			<stop  offset="0.9177" style="stop-color:#874B00"/>
			<stop  offset="0.9366" style="stop-color:#925301"/>
			<stop  offset="0.9542" style="stop-color:#A35F03"/>
			<stop  offset="0.9709" style="stop-color:#BB7005"/>
			<stop  offset="0.9869" style="stop-color:#DA8607"/>
			<stop  offset="1" style="stop-color:#FA9C0A"/>
		</linearGradient>
		<path style="fill:url(#SVGID_00000129925395193183586400000014429738134468559507_);" d="M56.8,35.5c-3.6-2-5.9-5.8-5.7-10.2
			c0.2-5.7,4.8-10.3,10.5-10.6c4.3-0.2,8.1,2,10.2,5.4c1-2,1.7-3.9,2.2-5.2c0.2-0.7,0-1.4-0.6-1.9c-0.7-0.5-1.4-0.9-2.2-1.3
			c-2.6-1.3-5.7-1.9-8.9-1.8c-3.3-0.1-6.3,0.5-8.9,1.8c-2.2,1.1-4.1,2.7-5.5,4.8c-3.8,5.7-3.2,13.6,1,21c0.4,0.7,1.2,1,2,0.7
			C52.9,37.4,54.9,36.5,56.8,35.5z"/>
		<g>
			<defs>
				<rect id="SVGID_00000061470212144404864300000005396332831043521186_" x="51.6" y="16.3" width="27.5" height="33.7"/>
			</defs>
			<clipPath id="SVGID_00000083797296044825718790000012203228306414126977_">
				<use xlink:href="#SVGID_00000061470212144404864300000005396332831043521186_"  style="overflow:visible;"/>
			</clipPath>
			<g style="clip-path:url(#SVGID_00000083797296044825718790000012203228306414126977_);">
				<path class="st0" d="M76.5,16.3C76.5,16.3,76.5,16.3,76.5,16.3c-0.5,3.6-1.5,7-2.9,9.9c-0.2,0.4-0.3,0.8-0.4,1.3
					c-0.7,4.3-3.8,7.8-7.9,8.9c-0.4,0.1-0.9,0.3-1.2,0.6c-0.7,0.5-1.5,0.9-2.3,1.3c-3.4,1.8-6.8,2.9-10,3.5c1.9,2.3,4.1,4.5,6.7,6.4
					c0.5,0.4,1,0.8,1.6,1.1c1.3,0.9,2.9,0.9,4.2,0c0.5-0.4,1.1-0.7,1.6-1.1C77.8,39.5,82.6,25.1,76.5,16.3z"/>
			</g>
		</g>
		<path class="st0" d="M70.7,30.9c-0.7,0.9-1.5,1.8-2.4,2.7C69.3,32.8,70.1,31.9,70.7,30.9z"/>
		<g>
			<g>
				
					<linearGradient id="SVGID_00000080923803926123419890000013908821553003778482_" gradientUnits="userSpaceOnUse" x1="40.9167" y1="27.2264" x2="75.7355" y2="27.2264">
					<stop  offset="0" style="stop-color:#FA9C0A"/>
					<stop  offset="0.1233" style="stop-color:#FFC40F"/>
					<stop  offset="0.2992" style="stop-color:#FFD53E"/>
					<stop  offset="0.6184" style="stop-color:#FFF79B"/>
					<stop  offset="0.6494" style="stop-color:#F9EF94"/>
					<stop  offset="0.6982" style="stop-color:#E9D880"/>
					<stop  offset="0.7588" style="stop-color:#CFB35F"/>
					<stop  offset="0.828" style="stop-color:#AB8132"/>
					<stop  offset="0.895" style="stop-color:#844900"/>
					<stop  offset="0.9177" style="stop-color:#874B00"/>
					<stop  offset="0.9366" style="stop-color:#925301"/>
					<stop  offset="0.9542" style="stop-color:#A35F03"/>
					<stop  offset="0.9709" style="stop-color:#BB7005"/>
					<stop  offset="0.9869" style="stop-color:#DA8607"/>
					<stop  offset="1" style="stop-color:#FA9C0A"/>
				</linearGradient>
				<path style="fill:url(#SVGID_00000080923803926123419890000013908821553003778482_);" d="M40.9,41.5c0,0,32.9,2.7,34.8-28.7
					C75.7,12.9,70.9,38,40.9,41.5z"/>
			</g>
		</g>
		<path class="st0" d="M62.4,27.3"/>
		<g>
			<path class="st0" d="M57.3,34.1c0.1,0,0.1,0,0.2-0.1c-0.4-0.2-0.9-0.5-1.3-0.8c-0.2-0.1-0.3-0.3-0.5-0.4
				c-0.2-0.2-0.2-0.6,0.1-0.7c0.4-0.2,0.9-0.3,1.3-0.4c0,0,0.1,0,0.1,0c0.2,0,0.3,0.1,0.4,0.2c0.1,0.2,0.3,0.4,0.4,0.7
				c0.2,0.3,0.5,0.7,0.8,1c0.1-0.1,0.3-0.1,0.4-0.2c-0.4-0.4-0.7-0.8-1-1.3c-0.2-0.3,0-0.6,0.3-0.6c0.5-0.1,0.9-0.2,1.4-0.2
				c0.5-0.1,1-0.1,1.5-0.1c0,0,0.1,0,0.1,0c0.2,0,0.4,0.2,0.4,0.3c0,0,0,0.1,0,0.1c0,0.1,0,0.2,0,0.3c0.1-0.1,0.3-0.2,0.4-0.3
				c0,0,0,0,0,0c0-0.2,0.1-0.3,0.3-0.4c0,0,0.1,0,0.1,0c0.1,0,0.1,0,0.2,0c0.2-0.1,0.4-0.3,0.5-0.4c-0.2,0-0.4,0-0.6,0
				c-0.1,0-0.1,0-0.2,0c-0.2,0-0.4-0.2-0.4-0.4c0-0.5,0-1,0-1.4c0-0.8,0-1.6,0-2.5c0-0.2,0.1-0.4,0.3-0.4c0,0,0.1,0,0.1,0
				c0.8,0,1.5,0,2.3,0c0.8,0,1.5,0,2.3,0c0.1,0,0.2,0,0.3,0.1c0.1,0.1,0.2,0.2,0.2,0.3c0,0.1,0,0.2,0,0.3c0.3-0.4,0.6-0.8,0.9-1.1
				c0,0,0,0,0,0c-0.1,0-0.1,0-0.2,0c-0.2,0-0.3-0.2-0.3-0.4c0-0.3-0.1-0.7-0.1-1c-0.1-0.7-0.3-1.5-0.5-2.2c-0.1-0.4-0.3-0.8-0.5-1.2
				c0-0.1-0.1-0.2,0-0.3c0-0.1,0.1-0.2,0.3-0.3c0.3-0.1,0.5-0.2,0.8-0.3c0.3-0.1,0.5-0.2,0.8-0.3c0.2-0.1,0.4,0,0.5,0.1
				c0.5,0.7,1,1.4,1.3,2.1c0-0.1,0.1-0.1,0.1-0.2c0.1-0.1,0.1-0.2,0.2-0.3c-2.3-4.7-8.3-7.3-14.2-4.1c-1.3,0.7-2.5,1.8-3.2,3.2
				c-3,5.6-0.9,11.2,3.3,13.8C57.2,34.3,57.3,34.1,57.3,34.1C57.3,34.1,57.3,34.1,57.3,34.1z M64.7,16.8c0.1-0.2,0.3-0.2,0.5-0.2
				c0.3,0.1,0.6,0.2,0.9,0.4c0.9,0.4,1.6,0.9,2.4,1.6c0.1,0.1,0.2,0.2,0.2,0.3c0,0.2-0.1,0.3-0.3,0.4c-0.3,0.1-0.5,0.2-0.8,0.3
				c-0.2,0.1-0.4,0.1-0.5,0.2c-0.2,0.1-0.4,0-0.5-0.2c-0.3-0.5-0.7-1.1-1.1-1.5c-0.2-0.2-0.4-0.5-0.6-0.7
				C64.7,17.2,64.6,17,64.7,16.8z M62.3,16.8c0-0.2,0.1-0.4,0.4-0.4c0.1,0,0.2,0,0.3,0.1c0.3,0.2,0.5,0.4,0.8,0.6
				c0.9,0.7,1.6,1.5,2.2,2.4c0.1,0.2,0.1,0.4,0,0.5c-0.1,0-0.1,0.1-0.2,0.1c-0.3,0.1-0.6,0.1-0.9,0.2c-0.4,0.1-0.8,0.1-1.1,0.1
				c-0.2,0-0.5,0-0.7,0.1c0,0,0,0,0,0c-0.1,0-0.1,0-0.2,0c-0.2,0-0.4-0.2-0.4-0.4C62.3,18.9,62.3,17.9,62.3,16.8z M62.3,21.3
				c0,0,0-0.1,0-0.1c0-0.2,0.2-0.3,0.3-0.3c0.1,0,0.2,0,0.3,0c0.4,0,0.9-0.1,1.3-0.1c0.7-0.1,1.3-0.2,2-0.3c0.2,0,0.4,0,0.5,0.2
				c0.5,1,0.8,1.9,1,3c0.1,0.4,0.1,0.8,0.1,1.2c0,0.1,0,0.2,0,0.2c0,0.2-0.2,0.3-0.3,0.3c0,0-0.1,0-0.1,0c-0.8,0-1.5,0-2.3,0
				c-0.8,0-1.5,0-2.3,0c0,0-0.1,0-0.1,0c-0.2,0-0.3-0.2-0.3-0.4c0,0,0,0,0-0.1C62.3,23.7,62.3,22.5,62.3,21.3z M61.9,30.1
				c0,0.1,0,0.1,0,0.2c0,0.2-0.2,0.3-0.4,0.3c-0.3,0-0.6,0-0.9,0.1c-0.4,0-0.7,0.1-1.1,0.1c-0.5,0.1-1,0.2-1.4,0.3
				c-0.2,0.1-0.4-0.1-0.5-0.2c-0.4-0.9-0.7-1.8-0.9-2.7c-0.1-0.6-0.2-1.2-0.2-1.7c0-0.1,0-0.2,0.1-0.3c0.1-0.1,0.2-0.1,0.3-0.1
				c0.6,0,1.2,0,1.8,0c0.2,0,0.3,0,0.5,0c0.8,0,1.5,0,2.3,0c0.1,0,0.2,0,0.2,0c0.1,0.1,0.2,0.2,0.2,0.3c0,0,0,0.1,0,0.1
				C61.9,27.5,61.9,28.8,61.9,30.1z M61.9,22.4c0,0.9,0,1.7,0,2.6c0,0.1,0,0.1,0,0.2c-0.1,0.2-0.2,0.2-0.3,0.3c0,0-0.1,0-0.1,0
				c-0.8,0-1.5,0-2.3,0c-0.8,0-1.5,0-2.3,0c0,0-0.1,0-0.1,0c-0.2,0-0.4-0.2-0.4-0.4c0-0.2,0-0.3,0-0.5c0.1-0.5,0.1-1,0.2-1.5
				c0.2-0.8,0.5-1.6,0.8-2.4c0.1-0.2,0.3-0.3,0.5-0.2c0.5,0.1,0.9,0.2,1.4,0.3c0.4,0.1,0.7,0.1,1.1,0.1c0.3,0,0.7,0,1,0.1
				c0.2,0,0.4,0.2,0.4,0.4C61.9,21.6,61.9,22,61.9,22.4z M61.3,16.5c0.1-0.1,0.2-0.1,0.3-0.1c0.2,0,0.3,0.2,0.3,0.3c0,0,0,0.1,0,0.1
				c0,0.5,0,1.1,0,1.6c0,0.5,0,1.1,0,1.6c0,0.1,0,0.3-0.2,0.3c-0.1,0.1-0.2,0.1-0.2,0.1c-0.2,0-0.5,0-0.7,0c-0.3,0-0.6-0.1-1-0.1
				c-0.4-0.1-0.9-0.1-1.3-0.2c-0.3-0.1-0.4-0.4-0.2-0.6c0.1-0.2,0.2-0.3,0.3-0.5c0.3-0.4,0.7-0.8,1-1.2
				C60.1,17.3,60.7,16.8,61.3,16.5z M55.7,18.6c0.6-0.5,1.3-1,2-1.4c0.4-0.2,0.9-0.4,1.3-0.6c0.1,0,0.2,0,0.2,0
				c0.2,0,0.3,0.2,0.3,0.4c0,0.1-0.1,0.2-0.2,0.3c-0.2,0.2-0.4,0.4-0.6,0.6c-0.4,0.5-0.8,1-1.2,1.6c0,0.1-0.1,0.1-0.2,0.2
				c-0.1,0-0.2,0-0.3,0c-0.3-0.1-0.7-0.2-1-0.3c-0.1,0-0.2-0.1-0.3-0.1C55.6,19.2,55.5,18.8,55.7,18.6z M52.7,24.4
				c0.1-0.6,0.2-1.1,0.4-1.7c0.3-1,0.8-1.9,1.4-2.7c0.1-0.1,0.2-0.3,0.3-0.4c0.1-0.2,0.3-0.2,0.5-0.1c0.5,0.2,1.1,0.4,1.6,0.6
				c0.3,0.1,0.4,0.3,0.3,0.6c-0.4,0.8-0.6,1.6-0.8,2.4c-0.1,0.4-0.2,0.8-0.2,1.3c0,0.2,0,0.4-0.1,0.6c0,0.2-0.2,0.4-0.4,0.4
				c-0.3,0-0.6,0-0.9,0c-0.1,0-0.3,0-0.4,0c-0.4,0-0.8,0-1.3,0c-0.1,0-0.1,0-0.2,0c-0.2-0.1-0.3-0.2-0.3-0.4
				C52.6,24.8,52.6,24.6,52.7,24.4z M55.3,31.9c-0.2,0.1-0.4,0.1-0.5-0.1c-0.4-0.5-0.8-1-1.1-1.6c-0.5-0.9-0.8-1.8-0.9-2.8
				c-0.1-0.3-0.1-0.7-0.1-1c0-0.1,0-0.1,0-0.2c0-0.2,0.2-0.3,0.4-0.3c0.2,0,0.4,0,0.6,0c0.2,0,0.5,0,0.7,0c0.4,0,0.9,0,1.3,0
				c0.2,0,0.4,0.2,0.4,0.4c0,0.1,0,0.2,0,0.3c0.1,1,0.2,2,0.5,2.9c0.1,0.4,0.3,0.9,0.5,1.3c0,0.1,0.1,0.2,0,0.3
				c0,0.2-0.1,0.3-0.3,0.3c-0.4,0.1-0.9,0.3-1.3,0.5C55.5,31.8,55.4,31.8,55.3,31.9z"/>
			<path class="st0" d="M57.3,34.1C57.3,34.1,57.3,34.1,57.3,34.1C57.3,34.1,57.3,34.1,57.3,34.1z"/>
		</g>
	</g>
</g>
</svg>
